<svg width="680" height="820" viewBox="0 0 680 820" xmlns="http://www.w3.org/2000/svg">
  <title>Recordare — 로고 시안 5방향 전체 프리뷰</title>

  <!-- Background -->
  <rect width="680" height="820" fill="#FAFAFA"/>

  <!-- Header -->
  <rect width="680" height="56" fill="#2D6A4F"/>
  <text x="340" y="23" font-family="Georgia, serif" font-size="14" fill="#F5F0E8"
        text-anchor="middle" letter-spacing="3">RECORDARE — 로고 시안 비교</text>
  <text x="340" y="44" font-family="Georgia, serif" font-size="10" fill="#A8D4BE"
        text-anchor="middle" font-style="italic">당신의 삶, 단 하나의 기억으로</text>

  <!-- ─── Direction A: 잎맥 타임라인 ─────────────────────── -->
  <rect x="20" y="74" width="640" height="130" rx="8" fill="white"
        stroke="#E0E0E0" stroke-width="1"/>
  <!-- Label -->
  <text x="36" y="95" font-family="Arial, sans-serif" font-size="10"
        fill="#2D6A4F" font-weight="bold">Direction A — 잎맥 타임라인</text>

  <!-- Symbol A -->
  <g transform="translate(36, 100)">
    <path d="M36,88 C12,72 8,38 36,6 C64,38 60,72 36,88 Z"
          fill="#F5F0E8" stroke="#2D6A4F" stroke-width="2.2"/>
    <line x1="36" y1="86" x2="36" y2="9"  stroke="#2D6A4F" stroke-width="1.8" stroke-linecap="round"/>
    <line x1="36" y1="22" x2="18" y2="16" stroke="#E07A5F" stroke-width="1.5" stroke-linecap="round"/>
    <line x1="36" y1="22" x2="54" y2="16" stroke="#E07A5F" stroke-width="1.5" stroke-linecap="round"/>
    <line x1="36" y1="37" x2="13" y2="31" stroke="#E07A5F" stroke-width="1.3" stroke-linecap="round"/>
    <line x1="36" y1="37" x2="59" y2="31" stroke="#E07A5F" stroke-width="1.3" stroke-linecap="round"/>
    <line x1="36" y1="52" x2="17" y2="48" stroke="#E07A5F" stroke-width="1.1" stroke-linecap="round"/>
    <line x1="36" y1="52" x2="55" y2="48" stroke="#E07A5F" stroke-width="1.1" stroke-linecap="round"/>
    <line x1="36" y1="67" x2="22" y2="65" stroke="#E07A5F" stroke-width="0.9" stroke-linecap="round"/>
    <line x1="36" y1="67" x2="50" y2="65" stroke="#E07A5F" stroke-width="0.9" stroke-linecap="round"/>
  </g>
  <!-- Wordmark A -->
  <text x="118" y="150" font-family="Georgia, serif" font-size="26" font-weight="bold" fill="#2D2D2D">Recordare</text>
  <text x="119" y="168" font-family="Georgia, serif" font-size="11" fill="#2D6A4F" letter-spacing="4">레 코 다 레</text>
  <!-- Icon A (small) -->
  <rect x="440" y="92" width="90" height="90" rx="20" fill="#2D6A4F"/>
  <path d="M485,172 C467,162 462,132 485,102 C508,132 503,162 485,172 Z" fill="#F5F0E8"/>
  <line x1="485" y1="170" x2="485" y2="105" stroke="#2D6A4F" stroke-width="3" stroke-linecap="round"/>
  <line x1="485" y1="120" x2="471" y2="116" stroke="#E07A5F" stroke-width="2.5" stroke-linecap="round"/>
  <line x1="485" y1="120" x2="499" y2="116" stroke="#E07A5F" stroke-width="2.5" stroke-linecap="round"/>
  <line x1="485" y1="137" x2="469" y2="133" stroke="#E07A5F" stroke-width="2" stroke-linecap="round"/>
  <line x1="485" y1="137" x2="501" y2="133" stroke="#E07A5F" stroke-width="2" stroke-linecap="round"/>
  <line x1="485" y1="153" x2="475" y2="151" stroke="#E07A5F" stroke-width="1.6" stroke-linecap="round"/>
  <line x1="485" y1="153" x2="495" y2="151" stroke="#E07A5F" stroke-width="1.6" stroke-linecap="round"/>
  <!-- Badge A -->
  <rect x="550" y="118" width="90" height="22" rx="11" fill="#E07A5F" opacity="0.15"/>
  <text x="595" y="133" font-family="Arial, sans-serif" font-size="9" fill="#E07A5F"
        text-anchor="middle" font-weight="bold">★ 1순위 추천</text>

  <!-- ─── Direction B: 연결 고리 ──────────────────────────── -->
  <rect x="20" y="218" width="640" height="130" rx="8" fill="white"
        stroke="#E0E0E0" stroke-width="1"/>
  <text x="36" y="239" font-family="Arial, sans-serif" font-size="10"
        fill="#2D6A4F" font-weight="bold">Direction B — 연결 고리 성장</text>

  <!-- Symbol B -->
  <g transform="translate(20, 248)">
    <line x1="30" y1="42" x2="108" y2="42" stroke="#2D6A4F" stroke-width="2" stroke-linecap="round"/>
    <circle cx="30"  cy="42" r="8"  fill="#F5F0E8" stroke="#E07A5F" stroke-width="2"/>
    <circle cx="52"  cy="42" r="12" fill="#F5F0E8" stroke="#2D6A4F" stroke-width="2"/>
    <circle cx="78"  cy="42" r="17" fill="#EAF3EE" stroke="#2D6A4F" stroke-width="2"/>
    <circle cx="108" cy="42" r="22" fill="#2D6A4F"/>
    <circle cx="108" cy="42" r="8"  fill="#E07A5F"/>
  </g>
  <text x="156" y="294" font-family="Georgia, serif" font-size="26" font-weight="bold" fill="#2D2D2D">Recordare</text>
  <text x="157" y="312" font-family="Georgia, serif" font-size="11" fill="#2D6A4F" letter-spacing="4">레 코 다 레</text>
  <!-- Icon B -->
  <rect x="440" y="236" width="90" height="90" rx="20" fill="#F5F0E8" stroke="#2D6A4F" stroke-width="1.5"/>
  <line x1="452" y1="281" x2="518" y2="281" stroke="#2D6A4F" stroke-width="3" stroke-linecap="round"/>
  <circle cx="452" cy="281" r="8"  fill="#F5F0E8" stroke="#E07A5F" stroke-width="2"/>
  <circle cx="468" cy="281" r="11" fill="#F5F0E8" stroke="#2D6A4F" stroke-width="2"/>
  <circle cx="490" cy="281" r="14" fill="#EAF3EE" stroke="#2D6A4F" stroke-width="2"/>
  <circle cx="518" cy="281" r="18" fill="#2D6A4F"/>
  <circle cx="518" cy="281" r="7"  fill="#E07A5F"/>

  <!-- ─── Direction C: R + 심장 ───────────────────────────── -->
  <rect x="20" y="362" width="640" height="130" rx="8" fill="white"
        stroke="#E0E0E0" stroke-width="1"/>
  <text x="36" y="383" font-family="Arial, sans-serif" font-size="10"
        fill="#2D6A4F" font-weight="bold">Direction C — R 이니셜 + 심장 (Cor)</text>

  <!-- Symbol C -->
  <g transform="translate(30, 375)">
    <rect x="4" y="4" width="12" height="82" rx="4" fill="#2D6A4F"/>
    <path d="M16,4 L44,4 Q62,4 62,22 Q62,40 44,40 L16,40"
          fill="none" stroke="#2D6A4F" stroke-width="12" stroke-linejoin="round" stroke-linecap="round"/>
    <path d="M21,13 L42,13 Q50,13 50,22 Q50,31 42,31 L21,31"
          fill="none" stroke="#FAFAFA" stroke-width="6" stroke-linecap="round"/>
    <line x1="44" y1="40" x2="74" y2="86" stroke="#2D6A4F" stroke-width="12" stroke-linecap="round"/>
    <path d="M44,46 C44,46 35,42 35,50 C35,58 44,63 44,63 C44,63 53,58 53,50 C53,42 44,46 44,46 Z"
          fill="#E07A5F"/>
  </g>
  <text x="140" y="438" font-family="Georgia, serif" font-size="26" font-weight="bold" fill="#2D2D2D">Recordare</text>
  <text x="141" y="456" font-family="Georgia, serif" font-size="11" fill="#2D6A4F" letter-spacing="4">레 코 다 레</text>
  <!-- Icon C -->
  <rect x="440" y="380" width="90" height="90" rx="20" fill="#2D6A4F"/>
  <rect x="458" y="396" width="14" height="58" rx="4" fill="#F5F0E8"/>
  <path d="M472,396 L496,396 Q510,396 510,410 Q510,424 496,424 L472,424"
        fill="none" stroke="#F5F0E8" stroke-width="14" stroke-linecap="round" stroke-linejoin="round"/>
  <path d="M477,403 L494,403 Q502,403 502,410 Q502,417 494,417 L477,417"
        fill="none" stroke="#2D6A4F" stroke-width="6" stroke-linecap="round"/>
  <line x1="496" y1="424" x2="520" y2="462" stroke="#F5F0E8" stroke-width="14" stroke-linecap="round"/>
  <path d="M497,428 C497,428 489,424 489,431 C489,438 497,443 497,443 C497,443 505,438 505,431 C505,424 497,428 497,428 Z"
        fill="#E07A5F"/>
  <!-- Badge C -->
  <rect x="550" y="406" width="90" height="22" rx="11" fill="#E07A5F" opacity="0.15"/>
  <text x="595" y="421" font-family="Arial, sans-serif" font-size="9" fill="#E07A5F"
        text-anchor="middle" font-weight="bold">★ 2순위 추천</text>

  <!-- ─── Direction D: 나선형 ─────────────────────────────── -->
  <rect x="20" y="506" width="640" height="130" rx="8" fill="white"
        stroke="#E0E0E0" stroke-width="1"/>
  <text x="36" y="527" font-family="Arial, sans-serif" font-size="10"
        fill="#2D6A4F" font-weight="bold">Direction D — 나선형 타임라인</text>

  <!-- Symbol D -->
  <g transform="translate(30, 530)">
    <path d="M46,36 C46,29 52,26 57,30 C62,34 62,42 55,46 C48,50 38,49 33,42 C28,35 30,23 39,19 C48,15 60,19 65,29 C70,39 67,54 57,60"
          fill="none" stroke="#2D6A4F" stroke-width="3.5" stroke-linecap="round"/>
    <path d="M57,60 L50,56 M57,60 L55,68"
          fill="none" stroke="#2D6A4F" stroke-width="3" stroke-linecap="round" stroke-linejoin="round"/>
    <circle cx="46" cy="36" r="4.5" fill="#E07A5F"/>
  </g>
  <text x="140" y="582" font-family="Georgia, serif" font-size="26" font-weight="bold" fill="#2D2D2D">Recordare</text>
  <text x="141" y="600" font-family="Georgia, serif" font-size="11" fill="#2D6A4F" letter-spacing="4">레 코 다 레</text>
  <!-- Icon D -->
  <rect x="440" y="524" width="90" height="90" rx="20" fill="#F5F0E8" stroke="#2D6A4F" stroke-width="1.5"/>
  <path d="M485,569 C485,560 491,556 497,560 C503,564 503,574 496,579 C489,584 478,583 473,575 C468,567 470,554 479,550 C488,546 500,550 505,561"
        fill="none" stroke="#2D6A4F" stroke-width="5" stroke-linecap="round"/>
  <path d="M505,561 L498,557 M505,561 L503,570"
        fill="none" stroke="#2D6A4F" stroke-width="4" stroke-linecap="round" stroke-linejoin="round"/>
  <circle cx="485" cy="569" r="7" fill="#E07A5F"/>

  <!-- ─── Direction E: 기억의 실 ───────────────────────────── -->
  <rect x="20" y="650" width="640" height="130" rx="8" fill="white"
        stroke="#E0E0E0" stroke-width="1"/>
  <text x="36" y="671" font-family="Arial, sans-serif" font-size="10"
        fill="#2D6A4F" font-weight="bold">Direction E — 기억의 실 (Thread of Memory)</text>

  <!-- Symbol E -->
  <g transform="translate(28, 672)">
    <circle cx="10"  cy="10"  r="8" fill="#2D6A4F"/>
    <circle cx="90"  cy="10"  r="8" fill="#2D6A4F"/>
    <circle cx="10"  cy="82"  r="8" fill="#2D6A4F"/>
    <circle cx="90"  cy="82"  r="8" fill="#2D6A4F"/>
    <line x1="18" y1="18"  x2="38" y2="38"  stroke="#2D6A4F" stroke-width="2.5" stroke-linecap="round"/>
    <line x1="82" y1="18"  x2="62" y2="38"  stroke="#2D6A4F" stroke-width="2.5" stroke-linecap="round"/>
    <line x1="18" y1="74"  x2="38" y2="54"  stroke="#2D6A4F" stroke-width="2.5" stroke-linecap="round"/>
    <line x1="82" y1="74"  x2="62" y2="54"  stroke="#2D6A4F" stroke-width="2.5" stroke-linecap="round"/>
    <circle cx="50" cy="46" r="14" fill="#E07A5F"/>
    <circle cx="50" cy="41" r="5"  fill="#F5F0E8"/>
    <path   d="M41,56 Q41,51 50,51 Q59,51 59,56" fill="#F5F0E8"/>
  </g>
  <text x="152" y="726" font-family="Georgia, serif" font-size="26" font-weight="bold" fill="#2D2D2D">Recordare</text>
  <text x="153" y="744" font-family="Georgia, serif" font-size="11" fill="#2D6A4F" letter-spacing="4">레 코 다 레</text>
  <!-- Icon E -->
  <rect x="440" y="668" width="90" height="90" rx="20" fill="#2D6A4F"/>
  <circle cx="455" cy="683" r="9" fill="#F5F0E8"/>
  <circle cx="519" cy="683" r="9" fill="#F5F0E8"/>
  <circle cx="455" cy="743" r="9" fill="#F5F0E8"/>
  <circle cx="519" cy="743" r="9" fill="#F5F0E8"/>
  <line x1="463" y1="691" x2="478" y2="706" stroke="#F5F0E8" stroke-width="3" stroke-linecap="round"/>
  <line x1="511" y1="691" x2="496" y2="706" stroke="#F5F0E8" stroke-width="3" stroke-linecap="round"/>
  <line x1="463" y1="735" x2="478" y2="720" stroke="#F5F0E8" stroke-width="3" stroke-linecap="round"/>
  <line x1="511" y1="735" x2="496" y2="720" stroke="#F5F0E8" stroke-width="3" stroke-linecap="round"/>
  <circle cx="487" cy="713" r="16" fill="#E07A5F"/>
  <circle cx="487" cy="708" r="5"  fill="#F5F0E8"/>
  <path   d="M479,722 Q479,717 487,717 Q495,717 495,722" fill="#F5F0E8"/>

  <!-- Footer -->
  <rect x="0" y="790" width="680" height="30" fill="#2D6A4F"/>
  <text x="340" y="809" font-family="Arial, sans-serif" font-size="9" fill="#A8D4BE"
        text-anchor="middle">Recordare BI Guide v1.0 · 2026-05-24 · 디자이너 전달용 브리프</text>
</svg>
